<?xml version="1.0" standalone="no"?>
<!DOCTYPE svg PUBLIC "-//W3C//DTD SVG 20010904//EN"
 "http://www.w3.org/TR/2001/REC-SVG-20010904/DTD/svg10.dtd">
<svg version="1.0" xmlns="http://www.w3.org/2000/svg"
 width="407.000000pt" height="407.000000pt" viewBox="0 0 407.000000 407.000000"
 preserveAspectRatio="xMidYMid meet">
<metadata>
Created by potrace 1.14, written by Peter Selinger 2001-2017
</metadata>
<g transform="translate(0.000000,407.000000) scale(0.100000,-0.100000)"
fill="#000000" stroke="none">
<path d="M717 4034 c-3 -3 -56 -6 -118 -6 l-114 -1 -74 -61 c-96 -79 -178
-152 -268 -240 l-73 -71 0 -1510 c0 -830 0 -1540 0 -1577 0 -67 1 -69 43 -110
53 -53 107 -100 107 -93 0 3 8 -3 18 -12 10 -10 32 -28 48 -41 37 -29 63 -49
150 -120 39 -31 82 -64 94 -72 12 -8 32 -24 44 -36 11 -11 37 -32 56 -45 l35
-24 664 -2 c438 -2 669 1 677 8 8 7 14 7 18 0 9 -14 1324 -13 1350 1 34 18
191 148 274 225 18 17 49 44 68 58 19 14 45 36 58 48 14 12 46 41 73 64 26 22
62 54 78 69 l30 28 1 150 c8 737 6 2944 -2 2958 -21 37 -377 383 -416 404 -28
15 -111 18 -102 3 4 -8 1 -8 -12 -1 -11 5 -28 7 -39 5 -14 -3 -1204 -14 -1370
-12 -5 0 -289 1 -630 3 -341 2 -630 6 -642 9 -11 3 -23 3 -26 1z m60 -1991
c-3 -10 -5 -2 -5 17 0 19 2 27 5 18 2 -10 2 -26 0 -35z m2463 -842 c0 -5 -40
-29 -90 -53 -49 -25 -90 -41 -90 -36 0 4 39 28 88 52 101 52 92 49 92 37z
m-190 -98 c-1 -7 -189 -103 -275 -141 -63 -28 -7 6 123 74 143 75 152 79 152
67z m-335 -173 c-16 -11 -34 -20 -40 -20 -5 0 4 9 20 20 17 11 35 20 40 20 6
0 -3 -9 -20 -20z m-55 -24 c0 -2 -7 -7 -16 -10 -8 -3 -12 -2 -9 4 6 10 25 14
25 6z m-45 -26 c-3 -5 -12 -10 -18 -10 -7 0 -6 4 3 10 19 12 23 12 15 0z m-40
-20 c-3 -5 -12 -10 -18 -10 -7 0 -6 4 3 10 19 12 23 12 15 0z"/>
</g>
</svg>
